<?xml version="1.0" encoding="UTF-8" standalone="no"?>
<svg
   xmlns:dc="http://purl.org/dc/elements/1.1/"
   xmlns:cc="http://creativecommons.org/ns#"
   xmlns:rdf="http://www.w3.org/1999/02/22-rdf-syntax-ns#"
   xmlns:svg="http://www.w3.org/2000/svg"
   xmlns="http://www.w3.org/2000/svg"
   xmlns:sodipodi="http://sodipodi.sourceforge.net/DTD/sodipodi-0.dtd"
   xmlns:inkscape="http://www.inkscape.org/namespaces/inkscape"
   viewBox="0 0 1000 1000"
   fill="#ff8585"
   version="1.1"
   id="svg6"
   sodipodi:docname="hibernate.svg"
   inkscape:version="0.92.4 5da689c313, 2019-01-14">
  <metadata
     id="metadata12">
    <rdf:RDF>
      <cc:Work
         rdf:about="">
        <dc:format>image/svg+xml</dc:format>
        <dc:type
           rdf:resource="http://purl.org/dc/dcmitype/StillImage" />
      </cc:Work>
    </rdf:RDF>
  </metadata>
  <defs
     id="defs10" />
  <sodipodi:namedview
     pagecolor="#ffffff"
     bordercolor="#666666"
     borderopacity="1"
     objecttolerance="10"
     gridtolerance="10"
     guidetolerance="10"
     inkscape:pageopacity="0"
     inkscape:pageshadow="2"
     inkscape:window-width="815"
     inkscape:window-height="540"
     id="namedview8"
     showgrid="false"
     inkscape:zoom="0.236"
     inkscape:cx="500"
     inkscape:cy="500"
     inkscape:window-x="0"
     inkscape:window-y="54"
     inkscape:window-maximized="0"
     inkscape:current-layer="svg6" />
  <path
     d="M446.6,239.3v521.3h86.9V239.3H446.6L446.6,239.3z"
     id="path2"
     style="fill:#1a1a1a" />
  <path
     d="M500,10C229.4,10,10,229.4,10,500s219.4,490,490,490s490-219.4,490-490C990,229.4,770.6,10,500,10z M784.9,784.9c-37,37-80.1,66.1-128.1,86.4c-49.6,21-102.4,31.6-156.8,31.6c-54.4,0-107.2-10.6-156.8-31.6c-48-20.3-91.1-49.4-128.1-86.4c-37-37-66.1-80.1-86.4-128.1c-21-49.6-31.6-102.4-31.6-156.8c0-54.4,10.6-107.2,31.6-156.8c20.3-48,49.3-91.1,86.4-128.1s80.1-66.1,128.1-86.4c49.6-21,102.4-31.6,156.8-31.6s107.2,10.6,156.8,31.6c48,20.3,91.1,49.3,128.1,86.4c37,37,66.1,80.1,86.4,128.1c21,49.6,31.6,102.4,31.6,156.8c0,54.4-10.6,107.2-31.6,156.8C851,704.8,821.9,747.9,784.9,784.9z"
     id="path4"
     style="fill:#1a1a1a" />
</svg>
